<?xml version="1.0" encoding="utf-8"?>
<!-- Generator: Adobe Illustrator 18.0.0, SVG Export Plug-In . SVG Version: 6.00 Build 0)  -->
<!DOCTYPE svg PUBLIC "-//W3C//DTD SVG 1.1//EN" "http://www.w3.org/Graphics/SVG/1.1/DTD/svg11.dtd">
<svg version="1.1" id="Layer_1" xmlns="http://www.w3.org/2000/svg" xmlns:xlink="http://www.w3.org/1999/xlink" x="0px" y="0px"
	 viewBox="0 0 925.2 430.6" width="463.533150795" height="215.734300402" enable-background="new 0 0 925.2 430.6" xml:space="preserve">
<g>
	<path fill="#1D6EFF" d="M176.9,314.7c1.2-1.9,2.8-1.9,3.9,0l17.6,32.2c1.2,1.9,3.5,4.4,5.6,5.6l32.4,17.6c2.1,1.2,2.1,2.8,0,3.9
		L204,391.5c-2.1,1.2-4.4,3.5-5.6,5.6l-17.6,32.2c-1.2,1.9-2.8,1.9-3.9,0L159.3,397c-1.2-1.9-3.5-4.4-5.6-5.6l-32.4-17.6
		c-1.9-1.2-1.9-2.8,0-3.9l32.4-17.6c1.9-1.2,4.4-3.5,5.6-5.6L176.9,314.7z"/>
</g>
<g>
	<path fill="#4599FF" d="M119,71.3c2.3-4.2,6-4.2,8.1,0l36.8,67.1c2.3,4.2,7.4,9.3,11.6,11.6l67.3,36.6c4.2,2.3,4.2,5.8,0,8.1
		l-67.3,36.8c-4.2,2.3-9.3,7.4-11.6,11.6L127.1,310c-2.3,4.2-5.8,4.2-8.1,0l-36.8-67.1c-2.3-4.2-7.4-9.3-11.6-11.6L3.1,194.6
		c-4.2-2.3-4.2-5.8,0-8.1l67.3-36.8c4.2-2.3,9.3-7.4,11.6-11.6L119,71.3z"/>
</g>
<g>
	<path fill="#44BAFF" d="M250.7,1.4c1.2-1.9,2.8-1.9,3.9,0l17.6,32.2c1.2,1.9,3.5,4.4,5.6,5.6l32.4,17.6c1.9,1.2,1.9,2.8,0,3.9
		l-32.4,17.6c-2.1,1.2-4.4,3.5-5.6,5.6l-17.6,32.2c-1.2,1.9-2.8,1.9-3.9,0l-17.6-32.2c-1.2-1.9-3.5-4.4-5.6-5.6l-32.4-17.6
		c-2.1-1.2-2.1-2.8,0-3.9l32.4-17.6c1.9-1.2,4.4-3.5,5.6-5.6L250.7,1.4z"/>
</g>
<g>
	<path fill="#37DAFF" d="M355.7,128.6c1.2-1.9,2.8-1.9,3.9,0l17.6,32.2c1.2,1.9,3.5,4.4,5.6,5.6l32.4,17.6c1.9,1.2,1.9,2.8,0,3.9
		l-32.4,17.6c-2.1,1.2-4.4,3.5-5.6,5.6l-17.6,32.2c-1.2,1.9-2.8,1.9-3.9,0L338.2,211c-1.2-1.9-3.5-4.4-5.6-5.6l-32.4-17.6
		c-1.9-1.2-1.9-2.8,0-3.9l32.4-17.6c1.9-1.2,4.4-3.5,5.6-5.6L355.7,128.6z"/>
</g>
<path fill="#FFFFFF" d="M242.6,414.9c-48.1,0-81.9-29.6-94.9-83.1c-6.5-27.1-14.1-43.7-33.8-48.8c-10.9-3-17.1-9.9-17.1-19.4
	c0-6.7,3.9-13,10.9-17.8c7.4-5.1,16.9-7.6,27.3-7.6c24.8,0,41.6,14.8,47.7,21.1l0.7,0.7l0.2-0.9c7.6-24.1,14.1-40,22.9-59.5v-0.2
	V199c-13.2-28.7-16-47.9-16-59c0-14.6,7.2-30.5,23.1-30.5c10.4,0,20.1,9.9,29.2,30.3l0.5,0.7l0.5-0.7c7.4-9.5,16.2-15,23.6-15
	c12.3,0,19.9,9,19.9,23.6c0,13.4-6.9,28.7-13.9,43.3c-2.3,4.9-4.4,9.7-6.2,14.1v0.2l8.3,19.9l0.5-0.2c3.2-1.4,6.7-2.1,10.2-2.1
	c2.8,0,5.3,0.5,7.9,1.4c9.7,3.7,14.8,14.1,13.4,28l-0.2,1.4l0.9-0.9c3-3,9-4.6,11.8-4.6c6.2,0,11.3,2.3,15,6.9
	c5.6,6.7,7.2,18,4.6,30.8c-0.7,3.2-1.9,7.9-3.7,12v0.2v0.2c1.2,6.9,2.1,13,2.1,20.6C338.2,372,295.3,414.9,242.6,414.9z"/>
<path d="M319.9,247.8c-2.8,0-9,1.6-12.3,4.9c1.2-14.3-4.2-24.8-13.9-28.5c-6-2.1-12.7-1.6-18.3,0.9l-7.9-19.2
	c7.4-18,20.1-39.8,20.1-57.6c0-13.9-6.9-24.1-20.4-24.1c-8.1,0-17.1,6.7-24.1,15.3c-9.3-20.8-19.2-30.5-29.8-30.5
	c-16.7,0-23.6,16.7-23.6,31c0,11.8,3.2,31.5,16,59c-8.6,19.2-15,34.9-22.9,59.5c-10.2-10.6-26.8-21.3-48.1-21.3
	c-11.1,0-20.4,2.8-27.8,7.9c-6.9,4.9-11.1,11.3-11.1,18.3c0,10.2,6.9,17.1,17.6,19.9c18.3,4.9,26.4,19.7,33.3,48.6
	c12.7,52.1,45.1,83.5,95.3,83.5c53,0,96.3-43.3,96.3-96.3c0-7.6-0.9-13.9-2.1-20.8c1.6-4.2,2.8-8.6,3.7-12.3
	C344.9,263.8,336.3,247.8,319.9,247.8 M289.6,235.5c8.6,3.9,9.3,21.7,0.7,42.8c-6.9,20.4-16.9,32.9-26.1,32.9
	c-7.4,0-13.4-5.1-13.4-19C250.7,266.3,272,227.4,289.6,235.5 M201.6,140c0-8.6,3.7-18.7,11.8-18.7c5.8,0,12.7,9,20.8,26.8
	c-6.9,9-14.3,20.8-21.5,35.4C205.3,164.3,201.6,150.2,201.6,140 M242.6,403.3c-42.8,0-72.2-29.8-83.5-74.3
	c-7.6-30.5-17.6-50.9-42.3-57.4c-2.8-0.9-8.1-2.8-8.1-8.1c0-5.8,9.5-13.9,26.4-13.9c20.4,0,37,12.5,48.6,28.9l8.8-3.2
	c1.4-16.7,9.7-39.6,24.8-71.5c18.7-40.3,37.7-67.8,50.4-67.6c3.9,0,8.8,4.9,8.8,11.8c0,16.7-14.8,41.6-27.5,68.9
	c-1.4,2.8-7.2,15.7-7.2,15.7l8.3,3.7c2.8-4.6,8.6-15.7,9.3-17.6l6.2,13.9c-13.4,11.3-25.2,38.4-25.2,59.5c0,15.5,6.9,25.2,17.1,28.5
	c9.3,2.8,18.3,0.2,25.2-8.1c1.6,9.7,8.1,18.3,20.8,18.3c11.1,0,18.5-6.5,24.1-17.4C329.4,364.9,286.8,403.3,242.6,403.3
	 M329.4,284.6c-2.8,17.1-13.2,36.1-26.1,36.1c-12.3,0-11.6-16.2-8.6-25.9c4.4-17.6,16.4-35.9,25.5-35.9
	C328,258.9,331.7,270,329.4,284.6 M286.1,370.4c-36.3,20.6-70.1,7.4-82.8-30.1l10.6-4.9c10.4,30.5,40.3,39.1,68,24.5L286.1,370.4z
	 M276.1,292c0,5.3-4.2,9.5-9.5,9.5c-5.3,0-9.5-4.2-9.5-9.5c0-5.3,4.2-9.5,9.5-9.5C272,282.5,276.1,286.7,276.1,292 M315.9,303.3
	c0,4.6-3.7,8.6-8.6,8.6c-4.6,0-8.6-3.7-8.6-8.6c0-4.6,3.7-8.6,8.6-8.6C312.2,294.8,315.9,298.7,315.9,303.3"/>
<path d="M460.1,131.9h-21.5v-16.4h61.8v16.4h-21.3v53.9h-19V131.9z"/>
<path d="M504.7,115.7h18.7v25.7h25.9v-25.7h18.7V186h-18.7v-27.5h-25.9V186h-18.7V115.7z"/>
<path d="M576.5,115.7h50.7v16.2h-31.9v10.6h26.1v15.3h-26.1v12h34.2V186h-52.8v-70.3H576.5z"/>
<path d="M439,201.5h16.9l27.1,39.1v-39.1h18.5v70.3h-16l-28-40.3v40.3H439V201.5z"/>
<path d="M529.5,201.5h21.3l25,70.3h-20.1l-4.6-14.6h-23.6l-4.6,14.6h-19.2L529.5,201.5z M547.3,243.6l-7.9-25.9l-8.1,25.9H547.3z"/>
<path d="M584.3,217.7h-21.5v-16.4h61.8v16.4h-21.3v53.9h-19V217.7z"/>
<path d="M629,201.5h18.7v70.3H629V201.5z"/>
<path d="M691,273.5c-5.3,0-10.2-0.9-14.6-2.8c-4.4-1.9-8.3-4.4-11.6-7.6c-3.2-3.2-5.8-7.2-7.6-11.8c-1.9-4.6-2.8-9.5-2.8-14.8
	c0-5.3,0.9-10.2,2.8-14.8c1.9-4.6,4.4-8.3,7.6-11.8c3.2-3.2,7.2-5.8,11.6-7.6c4.4-1.9,9.3-2.8,14.6-2.8s10.2,0.9,14.6,2.8
	c4.4,1.9,8.3,4.4,11.6,7.6c3.2,3.2,5.8,7.2,7.6,11.8c1.9,4.6,2.8,9.5,2.8,14.8c0,5.3-0.9,10.2-2.8,14.8c-1.9,4.6-4.4,8.3-7.6,11.8
	c-3.2,3.2-7.2,5.8-11.6,7.6C701.2,272.6,696.3,273.5,691,273.5z M691,255.9c2.8,0,5.1-0.5,7.4-1.6c2.1-0.9,3.9-2.3,5.3-4.2
	c1.4-1.9,2.5-3.9,3.5-6.2c0.7-2.3,1.2-4.9,1.2-7.6s-0.5-5.1-1.2-7.6c-0.7-2.3-1.9-4.4-3.5-6.2c-1.4-1.9-3.2-3.2-5.3-4.2
	c-2.1-0.9-4.6-1.6-7.4-1.6c-2.8,0-5.1,0.5-7.4,1.6c-2.1,0.9-3.9,2.3-5.3,4.2c-1.4,1.9-2.5,3.9-3.5,6.2c-0.7,2.3-1.2,4.9-1.2,7.6
	s0.5,5.1,1.2,7.6c0.7,2.3,1.9,4.4,3.5,6.2c1.4,1.9,3.2,3.2,5.3,4.2C685.9,255.4,688.2,255.9,691,255.9z"/>
<path d="M734.5,201.5h16.9l27.1,39.1v-39.1H797v70.3h-16l-28-40.3v40.3h-18.5V201.5z"/>
<path d="M825,201.5h21.3l25,70.3h-20.1l-4.6-14.6h-23.6l-4.6,14.6h-19.2L825,201.5z M842.8,243.6l-7.9-25.9l-8.1,25.9H842.8z"/>
<path d="M873.8,201.5h18.7v53.9h32.6v16.4H874v-70.3H873.8z"/>
<path d="M439.5,287.1h18.7V341h32.6v16.4h-51.1v-70.3H439.5z"/>
<path d="M526.7,359.1c-5.3,0-10.2-0.9-14.6-2.8c-4.4-1.9-8.3-4.4-11.6-7.6c-3.2-3.2-5.8-7.2-7.6-11.8c-1.9-4.6-2.8-9.5-2.8-14.8
	c0-5.3,0.9-10.2,2.8-14.8c1.9-4.6,4.4-8.3,7.6-11.8c3.2-3.2,7.2-5.8,11.6-7.6c4.4-1.9,9.3-2.8,14.6-2.8c5.3,0,10.2,0.9,14.6,2.8
	c4.4,1.9,8.3,4.4,11.6,7.6c3.2,3.2,5.8,7.2,7.6,11.8c1.9,4.6,2.8,9.5,2.8,14.8c0,5.3-0.9,10.2-2.8,14.8c-1.9,4.6-4.4,8.3-7.6,11.8
	c-3.2,3.2-7.2,5.8-11.6,7.6C536.9,358.2,532,359.1,526.7,359.1z M526.7,341.7c2.8,0,5.1-0.5,7.4-1.6c2.1-0.9,3.9-2.3,5.3-4.2
	c1.4-1.9,2.5-3.9,3.5-6.2c0.7-2.3,1.2-4.9,1.2-7.6s-0.5-5.1-1.2-7.6c-0.7-2.3-1.9-4.4-3.5-6.2c-1.4-1.9-3.2-3.2-5.3-4.2
	c-2.1-0.9-4.6-1.6-7.4-1.6s-5.1,0.5-7.4,1.6c-2.1,0.9-3.9,2.3-5.3,4.2c-1.4,1.9-2.5,3.9-3.5,6.2c-0.7,2.3-1.2,4.9-1.2,7.6
	s0.5,5.1,1.2,7.6c0.7,2.3,1.9,4.4,3.5,6.2c1.4,1.9,3.2,3.2,5.3,4.2C521.4,341.3,523.9,341.7,526.7,341.7z"/>
<path d="M584.3,303.6h-21.5v-16.4h61.8v16.4h-21.3v53.9h-19V303.6z"/>
<path d="M649.8,303.6h-21.5v-16.4h61.8v16.4h-21.3v53.9h-19L649.8,303.6L649.8,303.6z"/>
<path d="M694.5,287.1h50.7v16.2h-31.9v10.9h26.1v15.3h-26.1v12h34.2v16.2h-52.8v-70.6H694.5z"/>
<path d="M753.2,287.1h29.2c3.7,0,7.2,0.5,10.2,1.4c3,0.9,5.8,2.5,7.9,4.4c2.1,1.9,3.9,4.4,5.1,7.2c1.2,2.8,1.9,6.2,1.9,9.9
	c0,4.6-0.9,8.6-3,12c-2.1,3.5-4.6,6-8.1,8.1l15,27.1h-20.1l-11.8-23.8h-7.9v23.8h-18.3V287.1z M780.5,318.8c2.5,0,4.4-0.7,6-2.3
	c1.6-1.6,2.3-3.5,2.3-6c0-2.8-0.7-4.9-2.3-6.2c-1.4-1.6-3.5-2.3-6.2-2.3h-9v16.9H780.5z"/>
<path d="M829.1,329.5l-25-42.3h21.3l13.7,25l13-25h20.8l-25,42.1v28.2h-18.7L829.1,329.5L829.1,329.5z"/>
<path d="M893.7,322.3c-2.5,0-4.9-0.5-6.9-1.4c-2.1-0.9-3.9-2.1-5.6-3.7c-1.6-1.6-2.8-3.5-3.7-5.6c-0.9-2.1-1.4-4.4-1.4-6.9
	s0.5-4.9,1.4-6.9s2.1-3.9,3.7-5.6s3.5-2.8,5.6-3.7c2.1-0.9,4.4-1.4,6.9-1.4c2.5,0,4.6,0.5,6.9,1.4c2.1,0.9,3.9,2.1,5.6,3.7
	c1.6,1.6,2.8,3.5,3.7,5.6c0.9,2.1,1.4,4.4,1.4,6.9s-0.5,4.6-1.4,6.9c-0.9,2.1-2.1,3.9-3.7,5.6c-1.6,1.6-3.5,2.8-5.6,3.7
	C898.3,321.8,896,322.3,893.7,322.3z M893.7,319.1c2.1,0,3.9-0.5,5.6-1.2c1.6-0.7,3.2-1.6,4.4-3c1.2-1.4,2.1-2.8,2.8-4.4
	c0.7-1.6,0.9-3.5,0.9-5.6c0-2.1-0.2-3.9-0.9-5.6c-0.7-1.6-1.6-3.2-2.8-4.6c-1.2-1.4-2.8-2.3-4.4-3c-1.6-0.7-3.5-1.2-5.6-1.2
	s-3.7,0.5-5.6,1.2c-1.6,0.7-3.2,1.9-4.4,3c-1.2,1.4-2.3,2.8-3,4.6c-0.7,1.6-0.9,3.5-0.9,5.6c0,2.1,0.2,3.9,0.9,5.6
	c0.7,1.6,1.6,3.2,2.8,4.4c1.2,1.2,2.8,2.3,4.4,3C889.8,318.6,891.6,319.1,893.7,319.1z M887.4,295.7h6.9c1.2,0,2.1,0.2,2.8,0.5
	c0.7,0.2,1.4,0.7,2.1,1.2c0.5,0.5,0.9,1.2,1.2,1.6c0.2,0.7,0.2,1.2,0.2,1.9c0,1.2-0.2,2.1-0.9,3c-0.5,0.9-1.4,1.6-2.5,2.1l4.4,7.4
	h-3.9l-3.9-6.9h-2.8v6.9h-3.5L887.4,295.7L887.4,295.7z M894.1,304c0.9,0,1.9-0.2,2.3-0.7s0.7-1.2,0.7-2.1c0-0.9-0.2-1.6-0.7-2.1
	c-0.5-0.5-1.4-0.7-2.3-0.7h-3.2v5.3h3.2V304z"/>
</svg>
