<?xml version="1.0" encoding="UTF-8" standalone="no"?>
<svg
   xmlns:dc="http://purl.org/dc/elements/1.1/"
   xmlns:cc="http://creativecommons.org/ns#"
   xmlns:rdf="http://www.w3.org/1999/02/22-rdf-syntax-ns#"
   xmlns:svg="http://www.w3.org/2000/svg"
   xmlns="http://www.w3.org/2000/svg"
   xmlns:sodipodi="http://sodipodi.sourceforge.net/DTD/sodipodi-0.dtd"
   xmlns:inkscape="http://www.inkscape.org/namespaces/inkscape"
   viewBox="0 0 28.300233 37.574347"
   version="1.1"
   id="svg12"
   sodipodi:docname="telephone-304080.svg"
   width="28.300234"
   height="37.574348"
   inkscape:version="0.92.4 (33fec40, 2019-01-16)">
  <metadata
     id="metadata18">
    <rdf:RDF>
      <cc:Work
         rdf:about="">
        <dc:format>image/svg+xml</dc:format>
        <dc:type
           rdf:resource="http://purl.org/dc/dcmitype/StillImage" />
      </cc:Work>
    </rdf:RDF>
  </metadata>
  <defs
     id="defs16" />
  <sodipodi:namedview
     pagecolor="#ffffff"
     bordercolor="#666666"
     borderopacity="1"
     objecttolerance="10"
     gridtolerance="10"
     guidetolerance="10"
     inkscape:pageopacity="0"
     inkscape:pageshadow="2"
     inkscape:window-width="734"
     inkscape:window-height="480"
     id="namedview14"
     showgrid="false"
     inkscape:zoom="4.0492775"
     inkscape:cx="13.652397"
     inkscape:cy="19.286742"
     inkscape:window-x="0"
     inkscape:window-y="27"
     inkscape:window-maximized="0"
     inkscape:current-layer="svg12" />
  <path
     style="fill:#d9d8a1;fill-opacity:1"
     inkscape:connector-curvature="0"
     id="path2"
     d="m 9.4523958,12.487605 c -5.1662,2.9826 2.7163002,17.76 8.3695002,14.496 1.0039,1.7388 4.2375,7.3398 5.2415,9.0785 -2.3852,1.3772 -4.4041,2.2454 -7.1694,0.66454 -7.6779002,-4.3891 -16.1290002,-19.022 -15.8890002,-27.7499999 0.08347,-3.0315 1.8695,-4.2193 4.2058,-5.5681 1.0039,1.7388 4.2376,7.3397999 5.2415,9.0785999 h 9e-5 z"
     class="fil0" />
  <path
     style="fill:#d9d8a1;fill-opacity:1"
     inkscape:connector-curvature="0"
     id="path4"
     d="m 11.619396,12.241605 c -0.5582,0.32229 -1.2765,0.12992 -1.5989,-0.42833 L 5.0791958,3.2545751 c -0.32234,-0.55832 -0.12997,-1.2766 0.42828,-1.5989 l 2.597,-1.49939999 c 0.55826,-0.32235 1.2767,-0.12981 1.599,0.42845 L 14.644776,9.1433251 c 0.32229,0.5582 0.12987,1.2764999 -0.42833,1.5987999 l -2.5971,1.4994 z"
     class="fil0" />
  <path
     style="fill:#d9d8a1;fill-opacity:1"
     inkscape:connector-curvature="0"
     id="path6"
     d="m 25.118396,35.623605 c -0.5582,0.32229 -1.2765,0.12992 -1.5989,-0.4284 l -4.9413,-8.5587 c -0.32234,-0.55826 -0.12997,-1.2766 0.42828,-1.5989 l 2.5971,-1.4994 c 0.55826,-0.32229 1.2767,-0.12975 1.599,0.42845 l 4.9414,8.5586 c 0.32228,0.55826 0.12986,1.2766 -0.42834,1.5989 l -2.5971,1.4994 z"
     class="fil0" />
</svg>
