<?xml version="1.0" encoding="UTF-8" standalone="no"?>
<svg
   xmlns:dc="http://purl.org/dc/elements/1.1/"
   xmlns:cc="http://creativecommons.org/ns#"
   xmlns:rdf="http://www.w3.org/1999/02/22-rdf-syntax-ns#"
   xmlns:svg="http://www.w3.org/2000/svg"
   xmlns="http://www.w3.org/2000/svg"
   xmlns:sodipodi="http://sodipodi.sourceforge.net/DTD/sodipodi-0.dtd"
   xmlns:inkscape="http://www.inkscape.org/namespaces/inkscape"
   width="235.69196"
   height="150.4257"
   version="1.1"
   viewBox="0 0 235.69196 150.42571"
   id="svg12"
   sodipodi:docname="computer.svg"
   inkscape:version="0.92.4 (33fec40, 2019-01-16)">
  <metadata
     id="metadata18">
    <rdf:RDF>
      <cc:Work
         rdf:about="">
        <dc:format>image/svg+xml</dc:format>
        <dc:type
           rdf:resource="http://purl.org/dc/dcmitype/StillImage" />
        <dc:title></dc:title>
      </cc:Work>
    </rdf:RDF>
  </metadata>
  <defs
     id="defs16" />
  <sodipodi:namedview
     pagecolor="#ffffff"
     bordercolor="#666666"
     borderopacity="1"
     objecttolerance="10"
     gridtolerance="10"
     guidetolerance="10"
     inkscape:pageopacity="0"
     inkscape:pageshadow="2"
     inkscape:window-width="734"
     inkscape:window-height="480"
     id="namedview14"
     showgrid="false"
     inkscape:zoom="4.214929"
     inkscape:cx="122.52675"
     inkscape:cy="7.2716174"
     inkscape:window-x="632"
     inkscape:window-y="99"
     inkscape:window-maximized="0"
     inkscape:current-layer="svg12" />
  <path
     inkscape:connector-curvature="0"
     id="path4"
     style="color:#000000;text-indent:0;text-decoration:none;text-decoration-line:none;text-decoration-style:solid;text-decoration-color:#000000;text-transform:none;white-space:normal;isolation:auto;mix-blend-mode:normal;solid-color:#000000;fill:#d9d8a1;fill-opacity:1;stroke-width:7.02740002;color-rendering:auto;image-rendering:auto;shape-rendering:auto"
     d="M 23.51016,0 C 16.76737,0 11.23962,5.54181 11.23962,12.2846 v 110.44964 c 0,6.74279 5.52775,12.27055 12.27054,12.27055 H 212.1818 c 6.74279,0 12.27054,-5.52776 12.27054,-12.27055 V 12.2846 C 224.45234,5.54181 218.92459,0 212.1818,0 Z m 0,7.0274 H 212.1818 c 2.97125,0 5.24307,2.28531 5.24307,5.2572 v 110.44964 c 0,2.97189 -2.27189,5.24315 -5.24307,5.24315 H 23.51016 c -2.97125,0 -5.24307,-2.27126 -5.24307,-5.24315 V 12.2846 c 0,-2.97189 2.27189,-5.2572 5.24307,-5.2572 z" />
  <path
     style="fill:#d9d8a1;fill-opacity:1;stroke-width:7.02740002"
     inkscape:connector-curvature="0"
     id="path6"
     d="m 0,137.0343 c 0,7.41812 5.12227,13.39141 11.48277,13.39141 h 212.72642 c 6.36036,0 11.48277,-5.97329 11.48277,-13.39141 z" />
  <path
     style="fill:#578192;stroke-width:7.02740002;fill-opacity:1"
     inkscape:connector-curvature="0"
     id="path8"
     d="m 100.29856,139.84526 h 35.10116 c 0.5416,0 0.97758,0.4357 0.97758,0.97751 0,0.54111 -0.43598,0.97751 -0.97758,0.97751 h -35.10116 c -0.5416,0 -0.97758,-0.4357 -0.97758,-0.97751 0,-0.54111 0.43598,-0.97751 0.97758,-0.97751 z" />
</svg>
