<?xml version="1.0" encoding="UTF-8" standalone="no"?>
<!-- Created with Inkscape (http://www.inkscape.org/) -->

<svg
   xmlns:dc="http://purl.org/dc/elements/1.1/"
   xmlns:cc="http://creativecommons.org/ns#"
   xmlns:rdf="http://www.w3.org/1999/02/22-rdf-syntax-ns#"
   xmlns:svg="http://www.w3.org/2000/svg"
   xmlns="http://www.w3.org/2000/svg"
   xmlns:sodipodi="http://sodipodi.sourceforge.net/DTD/sodipodi-0.dtd"
   xmlns:inkscape="http://www.inkscape.org/namespaces/inkscape"
   width="47.781761mm"
   height="47.850948mm"
   viewBox="0 0 169.30545 169.5506"
   id="svg4332"
   version="1.1"
   inkscape:version="0.91 r13725"
   sodipodi:docname="piggy_bank.svg"
   inkscape:export-filename="/home/user/Dropbox/Projects/CMA/graphics/piggy_bank.png"
   inkscape:export-xdpi="300"
   inkscape:export-ydpi="300">
  <defs
     id="defs4334" />
  <sodipodi:namedview
     id="base"
     pagecolor="#ffffff"
     bordercolor="#666666"
     borderopacity="1.0"
     inkscape:pageopacity="0.0"
     inkscape:pageshadow="2"
     inkscape:zoom="0.35"
     inkscape:cx="-376.06156"
     inkscape:cy="-255.22466"
     inkscape:document-units="px"
     inkscape:current-layer="layer1"
     showgrid="false"
     fit-margin-top="5"
     fit-margin-left="5"
     fit-margin-right="5"
     fit-margin-bottom="5"
     inkscape:window-width="1366"
     inkscape:window-height="715"
     inkscape:window-x="0"
     inkscape:window-y="0"
     inkscape:window-maximized="1" />
  <metadata
     id="metadata4337">
    <rdf:RDF>
      <cc:Work
         rdf:about="">
        <dc:format>image/svg+xml</dc:format>
        <dc:type
           rdf:resource="http://purl.org/dc/dcmitype/StillImage" />
        <dc:title></dc:title>
      </cc:Work>
    </rdf:RDF>
  </metadata>
  <g
     inkscape:label="Layer 1"
     inkscape:groupmode="layer"
     id="layer1"
     transform="translate(-52.490133,-107.58694)">
    <path
       inkscape:connector-curvature="0"
       d="m 76.755206,225.55781 0.43025,0.2868 c 1.80623,1.1525 3.74861,2.0754 5.78244,2.7488 1.69399,0.6101 3.34641,1.3282 4.94687,2.1503 3.90242,2.1097 7.28313,5.0653 9.89375,8.6508 0.35854,0.4541 0.69318,0.8844 1.05173,1.3146 2.629324,3.0357 7.193754,6.7635 11.973304,6.9547 0.64538,0.024 0,-2.5815 0,-2.5815 l 0,-9.5591 c 0.006,-0.7451 0.34815,-1.4477 0.93118,-1.9112 0.59861,-0.4375 1.36039,-0.5861 2.07955,-0.4063 l 26.28806,7.1688 c 1.04654,0.2827 1.77298,1.2336 1.76778,2.3186 l 0,9.2483 c 2.04423,0.2609 4.10716,0.3492 6.16593,0.263 2.72493,0.132 5.45506,0.084 8.17274,-0.1435 l 0,-9.3678 c -0.006,-1.0798 0.72332,-2.0255 1.76882,-2.2947 l 26.28805,-7.1688 c 0.71812,-0.2037 1.4903,-0.053 2.07853,0.4063 0.58613,0.4511 0.93013,1.1484 0.9322,1.8873 l 0,5.9269 c 0.33881,0.095 0.7015,0.023 0.98002,-0.1912 9.37724,-7.0701 15.14409,-17.9283 15.74894,-29.6573 0.83556,-17.5646 -10.37182,-34.6043 -28.51104,-43.3507 -1.1224,-0.5497 -2.31753,-1.0517 -3.58439,-1.5776 -1.75324,2.3404 -3.85774,4.3951 -6.23765,6.0943 3.96582,1.4019 7.703,3.3838 11.0889,5.879 1.05589,0.792 1.26997,2.2895 0.47806,3.3454 -0.45415,0.5986 -1.16085,0.9509 -1.91223,0.9561 -0.51756,0.01 -1.02263,-0.1621 -1.43314,-0.478 -17.99582,-13.4782 -47.91505,-6.8103 -48.22579,-6.7625 -0.83868,0.2141 -1.72621,-0.045 -2.31962,-0.6734 -0.59342,-0.6298 -0.79711,-1.5319 -0.53418,-2.355 0.26397,-0.8241 0.95404,-1.4394 1.80207,-1.6077 0.28684,-0.072 1.98291,-0.4542 4.68395,-0.8605 -1.60878,-1.5288 -3.03568,-3.2363 -4.25369,-5.0903 -3.08452,1.1006 -6.07343,2.4516 -8.93763,4.0386 -1.72101,0.98 -3.46593,2.0785 -5.1859,3.2497 0.63602,0.5934 1.22009,1.2419 1.74387,1.9361 3.10427,3.5117 3.85357,8.5199 1.91224,12.785 -2.76859,4.7796 -7.85992,7.7342 -13.38254,7.7674 -3.871244,-0.083 -7.543984,-1.7293 -10.180584,-4.5644 l -0.0239,0 c -1.6254,1.8156 -3.2986,3.7039 -5.06638,5.4717 -3.34642,3.3703 -9.17666,4.7557 -13.47816,5.3293 -0.71397,0.097 -1.35519,0.4864 -1.76881,1.0757 -0.42922,0.6017 -0.59238,1.3531 -0.45416,2.0795 l 3.82343,19.3095 c 0.83037,0.7337 1.72621,1.3905 2.67714,1.959 z m 0,0"
       id="path6"
       style="fill:#d9d8a1;fill-opacity:1" />
    <path
       inkscape:connector-curvature="0"
       d="m 180.13654,259.42101 c 1.31986,0 2.3903,-1.0694 2.3903,-2.3893 l 0,-18.3772 -21.5085,5.8541 0,12.5231 c 0,1.3199 1.07043,2.3893 2.3903,2.3893 z m 0,0"
       id="path8"
       style="fill:#d9d8a1;fill-opacity:1" />
    <path
       inkscape:connector-curvature="0"
       d="m 118.00236,259.42101 16.72895,0 c 1.28349,0 2.33834,-1.0112 2.38926,-2.2937 l 0,-12.6187 -21.50747,-5.8541 0,18.3772 c 0,1.3199 1.0694,2.3893 2.38926,2.3893 z m 0,0"
       id="path10"
       style="fill:#d9d8a1;fill-opacity:1" />
    <path
       inkscape:connector-curvature="0"
       d="m 136.02207,169.44611 c 7.85992,-0.6787 15.77803,-0.1788 23.49143,1.482 3.93046,-1.8749 7.26441,-4.8035 9.6308,-8.4606 5.33036,-8.1271 5.23266,-18.6662 -0.24735,-26.6934 -5.48001,-8.0273 -15.25943,-11.9577 -24.76969,-9.954 -9.5113,2.0037 -16.87445,9.5456 -18.64951,19.1016 -1.77505,9.5549 2.38718,19.2387 10.54432,24.5244 z"
       id="path14"
       style="fill:#d9d8a1;fill-opacity:1"
       sodipodi:nodetypes="cccsccc" />
    <path
       inkscape:connector-curvature="0"
       d="m 113.58863,165.12281 c -4.33579,-2.513 -9.27851,-3.7871 -14.288784,-3.6821 -0.33464,2.0172 -0.46351,4.0635 -0.38452,6.1077 2.697914,0.1933 5.340754,0.8636 7.804834,1.9787 2.28741,-1.615 4.59145,-3.1094 6.86847,-4.4043 z m 0,0"
       id="path16"
       style="fill:#d9d8a1;fill-opacity:1" />
    <path
       inkscape:connector-curvature="0"
       d="m 101.22872,190.11801 c 3.71015,-0.035 7.14283,-1.9705 9.09352,-5.1267 1.12447,-2.6459 0.56016,-5.7076 -1.43418,-7.7788 -3.0045,-3.415 -7.40784,-5.2639 -11.949404,-5.0186 -0.0738,0 -0.1507,0.014 -0.2224,0.014 -0.0717,0 -0.0759,-0.019 -0.11848,-0.022 -2.42875,-0.017 -4.8523,0.2131 -7.23428,0.6859 l -0.0385,0 c 0.57887,11.8518 6.57436,17.2455 11.903684,17.2455 z m 0,0"
       id="path18"
       style="fill:#d9d8a1;fill-opacity:1" />
    <text
       xml:space="preserve"
       style="font-style:normal;font-weight:normal;font-size:40px;line-height:125%;font-family:sans-serif;letter-spacing:0px;word-spacing:0px;fill:#629199;fill-opacity:1;stroke:none;stroke-width:1px;stroke-linecap:butt;stroke-linejoin:miter;stroke-opacity:1"
       x="138.30669"
       y="160.93135"
       id="text4312"
       sodipodi:linespacing="125%"><tspan
         sodipodi:role="line"
         id="tspan4314"
         x="138.30669"
         y="160.93135"
         style="font-style:normal;font-variant:normal;font-weight:500;font-stretch:normal;font-size:40px;line-height:125%;font-family:'Century Schoolbook L';-inkscape-font-specification:'Century Schoolbook L, Medium';text-align:start;writing-mode:lr-tb;text-anchor:start;fill:#629199;fill-opacity:1;stroke:none;stroke-opacity:1">£</tspan></text>
  </g>
</svg>
